#tb 0: 1001/30000
0,          0,          0,        1,  2073600, 0x4da8a903
0,          1,          1,        1,  2073600, 0xace37580
0,          2,          2,        1,  2073600, 0xca647b5c
0,          3,          3,        1,  2073600, 0x44245b21
0,          4,          4,        1,  2073600, 0x963a6a95
0,          5,          5,        1,  2073600, 0x58b7a1ff
0,          6,          6,        1,  2073600, 0x4417d83c
0,          7,          7,        1,  2073600, 0xdca35172
0,          8,          8,        1,  2073600, 0xe664ef4e
0,          9,          9,        1,  2073600, 0x74687a0c
0,         10,         10,        1,  2073600, 0x34693d07
0,         11,         11,        1,  2073600, 0xb8ded965
0,         12,         12,        1,  2073600, 0x53d7cce4
0,         13,         13,        1,  2073600, 0x1eee290d
0,         14,         14,        1,  2073600, 0x05239eb8
0,         15,         15,        1,  2073600, 0x4d758381
0,         16,         16,        1,  2073600, 0x488640e9
0,         17,         17,        1,  2073600, 0x5a27ec50
0,         18,         18,        1,  2073600, 0xd2973278
0,         19,         19,        1,  2073600, 0x40a33236
0,         20,         20,        1,  2073600, 0x485d4fc0
0,         21,         21,        1,  2073600, 0x34e2c4b7
0,         22,         22,        1,  2073600, 0xc9cd12d2
0,         23,         23,        1,  2073600, 0x1456ee5b
0,         24,         24,        1,  2073600, 0x729e1bb4
0,         25,         25,        1,  2073600, 0x889fd716
0,         26,         26,        1,  2073600, 0x53cf1e1c
0,         27,         27,        1,  2073600, 0xf036782f
0,         28,         28,        1,  2073600, 0x2c7865b4
0,         29,         29,        1,  2073600, 0x9616bcf8
0,         30,         30,        1,  2073600, 0xc425cb4f
0,         31,         31,        1,  2073600, 0xb464f2f9
0,         32,         32,        1,  2073600, 0x2c3fd6d4
0,         33,         33,        1,  2073600, 0x47a5761a
0,         34,         34,        1,  2073600, 0xb85038b8
0,         35,         35,        1,  2073600, 0x42339ae2
0,         36,         36,        1,  2073600, 0x6f6e31c9
0,         37,         37,        1,  2073600, 0x5235e8a4
0,         38,         38,        1,  2073600, 0xcf5f4360
0,         39,         39,        1,  2073600, 0xc1bb642e
0,         40,         40,        1,  2073600, 0x6b72f865
0,         41,         41,        1,  2073600, 0xd6543bb5
0,         42,         42,        1,  2073600, 0x5c81308b
0,         43,         43,        1,  2073600, 0x38da20e8
0,         44,         44,        1,  2073600, 0x52f5e919
0,         45,         45,        1,  2073600, 0x206e6e12
0,         46,         46,        1,  2073600, 0x4bac0bab
0,         47,         47,        1,  2073600, 0xef069bec
0,         48,         48,        1,  2073600, 0xadfcb32a
0,         49,         49,        1,  2073600, 0x2e2173a1
0,         50,         50,        1,  2073600, 0x6a60fdb5
0,         51,         51,        1,  2073600, 0x0450eef5
0,         52,         52,        1,  2073600, 0xf0301a49
0,         53,         53,        1,  2073600, 0x6b1ceb7e
0,         54,         54,        1,  2073600, 0xc9a83cf2
0,         55,         55,        1,  2073600, 0xff3e5a6a
0,         56,         56,        1,  2073600, 0xf8bbb1fe
0,         57,         57,        1,  2073600, 0xce3bd9b7
0,         58,         58,        1,  2073600, 0xee96bd9b
0,         59,         59,        1,  2073600, 0xd155d5db
0,         60,         60,        1,  2073600, 0x557b6d86
0,         61,         61,        1,  2073600, 0xe9c9c8e6
0,         62,         62,        1,  2073600, 0x6bdfa8b4
0,         63,         63,        1,  2073600, 0xf7202899
0,         64,         64,        1,  2073600, 0x7d3fd8d2
0,         65,         65,        1,  2073600, 0x84603f5f
0,         66,         66,        1,  2073600, 0x7265b7e7
0,         67,         67,        1,  2073600, 0x22ad380f
0,         68,         68,        1,  2073600, 0x644e62f5
0,         69,         69,        1,  2073600, 0xd3a77f6d
0,         70,         70,        1,  2073600, 0x98d6e872
0,         71,         71,        1,  2073600, 0xbaccea33
0,         72,         72,        1,  2073600, 0xba668fbd
0,         73,         73,        1,  2073600, 0x79772a9f
0,         74,         74,        1,  2073600, 0x92578855
0,         75,         75,        1,  2073600, 0x0108009d
0,         76,         76,        1,  2073600, 0xe07f8f6c
0,         77,         77,        1,  2073600, 0xaf747cc9
0,         78,         78,        1,  2073600, 0x952301da
0,         79,         79,        1,  2073600, 0x254d5b30
0,         80,         80,        1,  2073600, 0xe214aa4d
0,         81,         81,        1,  2073600, 0x7a9361b1
0,         82,         82,        1,  2073600, 0x79551d27
0,         83,         83,        1,  2073600, 0x5a97f4f4
0,         84,         84,        1,  2073600, 0x8541c24d
0,         85,         85,        1,  2073600, 0xe8693eb3
0,         86,         86,        1,  2073600, 0x43ef1baf
0,         87,         87,        1,  2073600, 0x284b4fba
0,         88,         88,        1,  2073600, 0x5c71b82f
0,         89,         89,        1,  2073600, 0x38c95d63
0,         90,         90,        1,  2073600, 0xe2419ac1
0,         91,         91,        1,  2073600, 0xba21a3ea
0,         92,         92,        1,  2073600, 0x6a123d7f
0,         93,         93,        1,  2073600, 0x8ac2f703
0,         94,         94,        1,  2073600, 0xa086a606
0,         95,         95,        1,  2073600, 0xca417561
0,         96,         96,        1,  2073600, 0xf1a2d244
0,         97,         97,        1,  2073600, 0x293470cd
0,         98,         98,        1,  2073600, 0x5cb9a828
0,         99,         99,        1,  2073600, 0xffc3d8eb
0,        100,        100,        1,  2073600, 0x7339d153
0,        101,        101,        1,  2073600, 0xadd8eb0c
0,        102,        102,        1,  2073600, 0x02c5fbbb
0,        103,        103,        1,  2073600, 0xac4f34fc
0,        104,        104,        1,  2073600, 0x979c1e16
0,        105,        105,        1,  2073600, 0x2846a1ad
0,        106,        106,        1,  2073600, 0x36aa9340
0,        107,        107,        1,  2073600, 0xd2ca50da
0,        108,        108,        1,  2073600, 0x83ab9f83
0,        109,        109,        1,  2073600, 0x053d65a3
0,        110,        110,        1,  2073600, 0x01d13723
0,        111,        111,        1,  2073600, 0x61b704e3
0,        112,        112,        1,  2073600, 0xb23c406c
0,        113,        113,        1,  2073600, 0xed4625e5
0,        114,        114,        1,  2073600, 0x195099ae
0,        115,        115,        1,  2073600, 0x69fe6568
0,        116,        116,        1,  2073600, 0x70f28535
0,        117,        117,        1,  2073600, 0x35684eaf
0,        118,        118,        1,  2073600, 0xb395bee4
0,        119,        119,        1,  2073600, 0x37376557
0,        120,        120,        1,  2073600, 0x7d4aae62
0,        121,        121,        1,  2073600, 0x7c0fcf45
0,        122,        122,        1,  2073600, 0x901dcc9d
0,        123,        123,        1,  2073600, 0x01d8c5e6
0,        124,        124,        1,  2073600, 0x2ea21b23
0,        125,        125,        1,  2073600, 0x82a8ac46
0,        126,        126,        1,  2073600, 0xceafaab2
0,        127,        127,        1,  2073600, 0x9326348e
0,        128,        128,        1,  2073600, 0xc44cb161
0,        129,        129,        1,  2073600, 0x9965262e
0,        130,        130,        1,  2073600, 0xfa63b46b
0,        131,        131,        1,  2073600, 0xab28e0b6
0,        132,        132,        1,  2073600, 0x670be208
0,        133,        133,        1,  2073600, 0xf7906156
0,        134,        134,        1,  2073600, 0x56b9e984
0,        135,        135,        1,  2073600, 0x316d7168
0,        136,        136,        1,  2073600, 0x2a60b0a2
0,        137,        137,        1,  2073600, 0xdbcc675b
0,        138,        138,        1,  2073600, 0x0a1064ac
0,        139,        139,        1,  2073600, 0x42c47ec0
0,        140,        140,        1,  2073600, 0xf041dc37
0,        141,        141,        1,  2073600, 0x34ec6c95
0,        142,        142,        1,  2073600, 0xe6812613
0,        143,        143,        1,  2073600, 0x9430abf7
0,        144,        144,        1,  2073600, 0x13988789
0,        145,        145,        1,  2073600, 0xdd544d98
0,        146,        146,        1,  2073600, 0x7a2d7d27
0,        147,        147,        1,  2073600, 0xb48c3083
0,        148,        148,        1,  2073600, 0x21a0171a
0,        149,        149,        1,  2073600, 0x3081eb62
0,        150,        150,        1,  2073600, 0x8387f045
0,        151,        151,        1,  2073600, 0x5efc7301
0,        152,        152,        1,  2073600, 0x98debd3d
0,        153,        153,        1,  2073600, 0x84c16e1c
0,        154,        154,        1,  2073600, 0xd1a2ec46
0,        155,        155,        1,  2073600, 0xaf0f3e28
0,        156,        156,        1,  2073600, 0xa4bb4f67
0,        157,        157,        1,  2073600, 0x377afc14
0,        158,        158,        1,  2073600, 0xb8599d89
0,        159,        159,        1,  2073600, 0x3091dbb8
0,        160,        160,        1,  2073600, 0xd5b5295c
0,        161,        161,        1,  2073600, 0x05361afa
0,        162,        162,        1,  2073600, 0xae33a2c0
0,        163,        163,        1,  2073600, 0x750d281a
0,        164,        164,        1,  2073600, 0xe737faa5
0,        165,        165,        1,  2073600, 0x263d5be2
0,        166,        166,        1,  2073600, 0xf8421eeb
0,        167,        167,        1,  2073600, 0xe48160fa
0,        168,        168,        1,  2073600, 0x50caaab0
0,        169,        169,        1,  2073600, 0xceba1ef7
0,        170,        170,        1,  2073600, 0x0433129f
0,        171,        171,        1,  2073600, 0x7c67a9af
0,        172,        172,        1,  2073600, 0x83be580e
0,        173,        173,        1,  2073600, 0x6a803288
0,        174,        174,        1,  2073600, 0xe3b8f1bb
0,        175,        175,        1,  2073600, 0x601c42c9
0,        176,        176,        1,  2073600, 0xcc6eaf52
0,        177,        177,        1,  2073600, 0x7bd9a6d8
